<?xml version="1.0" encoding="utf-8"?>
<!-- Generator: Adobe Illustrator 24.1.1, SVG Export Plug-In . SVG Version: 6.00 Build 0)  -->
<svg version="1.1" id="Ebene_1" xmlns="http://www.w3.org/2000/svg" xmlns:xlink="http://www.w3.org/1999/xlink" x="0px" y="0px"
	 viewBox="0 0 470 470" style="enable-background:new 0 0 470 470;" xml:space="preserve">
<style type="text/css">
	.st0{fill:url(#SVGID_1_);stroke:url(#SVGID_2_);stroke-miterlimit:10;}
	.st1{fill:#F2F2F2;}
	.st2{opacity:0.2;}
	.st3{fill:#333333;}
</style>
<radialGradient id="SVGID_1_" cx="235" cy="235" r="218.4388" gradientUnits="userSpaceOnUse">
	<stop  offset="0" style="stop-color:#00F2C3"/>
	<stop  offset="9.782165e-02" style="stop-color:#00E3BB"/>
	<stop  offset="0.3061" style="stop-color:#00CAAE"/>
	<stop  offset="0.5219" style="stop-color:#00B7A5"/>
	<stop  offset="0.7478" style="stop-color:#00AD9F"/>
	<stop  offset="1" style="stop-color:#00A99D"/>
</radialGradient>
<radialGradient id="SVGID_2_" cx="235" cy="235" r="218.9377" gradientUnits="userSpaceOnUse">
	<stop  offset="0" style="stop-color:#B3B3B3"/>
	<stop  offset="0.1198" style="stop-color:#89B1AE"/>
	<stop  offset="0.2586" style="stop-color:#5FAEA9"/>
	<stop  offset="0.4006" style="stop-color:#3DACA4"/>
	<stop  offset="0.5443" style="stop-color:#22ABA1"/>
	<stop  offset="0.6904" style="stop-color:#0FAA9F"/>
	<stop  offset="0.8403" style="stop-color:#04A99D"/>
	<stop  offset="1" style="stop-color:#00A99D"/>
</radialGradient>
<path class="st0" d="M466.8,191.8c-3.2-15.7-18.4-25.9-34.1-22.9l0,0c-0.1,0-0.2,0-0.3,0.1c-0.1,0-0.1,0-0.2,0
	c-1.3,0.3-2.6,0.6-3.9,1.1c0,0-0.1,0-0.1,0c-0.2,0.1-0.4,0.2-0.6,0.2c-12.6,4.7-15.8,15.1-20.8,20.4c-5.6,6-7.5,6.5-16.9,8.5
	c-8.1,1.6-18.8,4.5-35.4-1.7c-2.9-7.8-6.7-15.2-11.2-22.1c8.3,3.3,18.9,9.2,33.5,2.7c0.1-0.1,0.2-0.1,0.4-0.2c0.1,0,0.1-0.1,0.2-0.1
	c0.9-0.4,1.8-0.8,2.7-1.3c0.1,0,0.1-0.1,0.2-0.1c0.1,0,0.2-0.1,0.3-0.1l0,0c15.5-9,20.9-28.8,12.1-44.4s-28.5-21.3-44.2-12.8l0,0
	c-0.1,0-0.2,0.1-0.3,0.1c-0.1,0-0.1,0.1-0.2,0.1c-1.3,0.7-2.6,1.6-3.8,2.5c0,0-0.1,0.1-0.1,0.1c-0.2,0.2-0.4,0.3-0.6,0.5
	c-11.8,9.3-11.7,21.5-15.2,28.9c-0.6,1.3-1.2,2.5-1.8,3.5c-6-5.8-12.5-11.1-19.6-15.6c-0.3-18,1.5-27.3,4.8-34.4
	c3.5-7.6,3.8-10.2,11.1-12.4c6.8-2,17.2-2.4,23.9-14c0.1-0.1,0.1-0.2,0.2-0.3c0,0,0-0.1,0.1-0.1c0.4-0.7,0.7-1.4,1.1-2.1
	c0-0.1,0-0.1,0.1-0.2c0-0.1,0.1-0.1,0.1-0.2l0,0c5.6-12.7,0-27.7-12.7-33.5c-12.7-5.8-27.7-0.4-33.7,12.2l0,0c0,0.1-0.1,0.1-0.1,0.2
	c0,0.1-0.1,0.1-0.1,0.2c-0.5,1.1-0.9,2.2-1.2,3.3c0,0,0,0.1,0,0.1c-0.1,0.2-0.1,0.4-0.2,0.6c-3.2,11.3,2.5,18.9,3.7,25.1
	c1.3,7,0.7,8.6-2.8,16.2c-3.2,7-7,16.9-22.4,25.9c-7.1-2.3-14.5-4-22.1-5.1c-0.6-3.4-0.9-6.4-0.9-9.2c-0.1-10-1.1-13,5.7-19
	c6.3-5.6,17.3-11.3,18.7-27.3c0-0.1,0-0.2,0-0.4c0-0.1,0-0.1,0-0.2c0.1-0.9,0.1-1.8,0.1-2.8c0-0.1,0-0.1,0-0.2c0-0.1,0-0.2,0-0.3
	l0,0c-0.4-16.6-14.1-29.9-30.7-29.7s-30.1,13.6-30.2,30.3l0,0c0,0.1,0,0.2,0,0.3c0,0.1,0,0.2,0,0.2c0,1.4,0.1,2.8,0.3,4.2
	c0,0,0,0.1,0,0.1c0,0.2,0.1,0.5,0.1,0.7c2.3,13.8,12.3,19.1,16.7,25.3c5,7,5.2,9,5.3,19c0,2.4,0.1,5.1,0,8c-0.8,0-1.6,0-2.4,0
	c-7,0-13.9,0.6-20.7,1.7c2.3-5.9,3.5-13,1-21.8c0-0.1-0.1-0.3-0.1-0.4c0-0.1,0-0.1-0.1-0.2c-0.3-1-0.6-2-1-3c0-0.1-0.1-0.2-0.1-0.2
	c0-0.1-0.1-0.2-0.1-0.3l0,0c-7.1-17.6-27.1-26.3-44.9-19.5c-17.8,6.9-26.7,26.8-20.2,44.6l0,0c0,0.1,0.1,0.2,0.1,0.3
	c0,0.1,0.1,0.2,0.1,0.2c0.6,1.5,1.3,3,2,4.3c0,0,0,0.1,0.1,0.1c0.1,0.2,0.3,0.5,0.4,0.7c4.1,7.1,9.4,11,14.7,13.8
	c-5,3.3-9.8,6.9-14.2,10.9c-10.2-5.4-16.2-10.2-20.6-15.2c-6.6-7.5-9.3-9.1-8.2-18.1c1.1-8.4,5.7-19.9-3.7-32.9
	c-0.1-0.1-0.1-0.2-0.2-0.3c0,0-0.1-0.1-0.1-0.1c-0.5-0.7-1.1-1.5-1.7-2.2c0-0.1-0.1-0.1-0.2-0.2c-0.1-0.1-0.1-0.1-0.2-0.2l0,0
	C109.7,69.1,90.7,68,78.2,79c-12.5,11-13.9,30-3.1,42.7l0,0c0.1,0.1,0.1,0.1,0.2,0.2c0,0.1,0.1,0.1,0.1,0.2c0.9,1.1,1.9,2,3,2.9
	c0,0,0.1,0.1,0.1,0.1c0.2,0.2,0.4,0.3,0.5,0.5c10.7,9,21.8,6.5,29.2,8.2c8.3,2,9.8,3.4,16.4,10.9c4.6,5.3,10.9,11.7,14.7,23.8
	c-2.3,3.1-4.5,6.3-6.5,9.5c-9.8,0.5-19.3,5.3-25.4,13.8c-3,4.2-4.9,8.8-5.8,13.6c-4.4-0.3-8.2-0.9-11.6-1.8
	c-10.6-2.8-14-2.6-18.5-11.5c-4.1-8.3-6.9-21.6-23.4-27.7c-0.1,0-0.3-0.1-0.4-0.1c-0.1,0-0.1,0-0.2-0.1c-0.9-0.3-1.9-0.7-2.9-0.9
	c-0.1,0-0.2,0-0.2-0.1c-0.1,0-0.2-0.1-0.3-0.1l0,0c-17.7-4.4-35.6,6.2-40.3,23.8s5.7,35.7,23.2,40.7l0,0c0.1,0,0.2,0,0.3,0.1
	c0.1,0,0.2,0,0.2,0.1c1.5,0.4,3,0.7,4.5,0.9c0,0,0.1,0,0.1,0c0.3,0,0.5,0.1,0.8,0.1c15.2,1.6,23.8-7.4,31.6-10.3
	c8.8-3.2,11-2.9,21.5-0.1c5,1.3,11,2.7,17.7,6.1c2.2,5.3,5.9,10,10.8,13.7l0,0c0.1,0.1,0.2,0.1,0.2,0.2c0.1,0,0.1,0.1,0.2,0.2
	c0.3,0.2,0.6,0.4,0.8,0.6c0.1,13,2.3,25.6,6.4,37.3c-0.3,0.1-0.6,0.2-0.8,0.3c-9.3,3.7-11.7,5.7-19.8,1.6
	c-7.5-3.9-16.8-12.1-32.2-7.7c-0.1,0-0.2,0.1-0.4,0.1c-0.1,0-0.1,0-0.2,0.1c-0.9,0.3-1.8,0.6-2.6,0.9c-0.1,0-0.1,0.1-0.2,0.1
	c-0.1,0-0.2,0.1-0.3,0.1l0,0c-15.4,6.4-22.8,23.9-16.7,39.4c6.1,15.5,23.6,23.2,39.1,17.3l0,0c0.1,0,0.2-0.1,0.3-0.1
	c0.1,0,0.1,0,0.2-0.1c1.3-0.5,2.6-1.1,3.8-1.8c0,0,0.1,0,0.1-0.1c0.2-0.1,0.4-0.2,0.6-0.4c12.1-7.1,13.4-18.4,17.6-24.7
	c4.7-7.1,6.5-8.1,15.8-11.7c0.4-0.1,0.7-0.3,1.1-0.4c4.2,8.6,9.5,16.6,15.6,23.9c-0.5,0.8-0.9,1.8-1.2,3.1
	c-4.5,20.8-9,30.5-14.5,37.3s-6.4,9.3-14.3,9.6c-7.3,0.3-17.8-2-27.5,8c-0.1,0.1-0.2,0.2-0.2,0.2c0,0-0.1,0.1-0.1,0.1
	c-0.6,0.6-1.1,1.2-1.6,1.8c0,0.1-0.1,0.1-0.1,0.2c-0.1,0.1-0.1,0.1-0.2,0.2l0,0c-8.8,11.3-7,27.7,4.3,36.8
	c11.2,9.1,27.6,7.4,36.8-3.7l0,0c0.1-0.1,0.1-0.1,0.1-0.2c0-0.1,0.1-0.1,0.1-0.2c0.8-1,1.5-2,2.1-3c0,0,0-0.1,0.1-0.1
	c0.1-0.2,0.2-0.4,0.3-0.5c6.1-10.5,2.3-19.6,2.7-26.1c0.5-7.4,1.5-8.8,6.9-15.6s12.4-16.7,34-21.5c0.8-0.2,1.5-0.4,2.1-0.7
	c5.3,3.2,10.9,6.1,16.7,8.6c-0.2,4.3-0.7,7.9-1.5,11.2c-2.5,9.7-2.2,12.8-10.3,17c-7.5,3.8-19.6,6.5-25.1,21.7
	c0,0.1-0.1,0.2-0.1,0.4c0,0.1,0,0.1-0.1,0.2c-0.3,0.9-0.6,1.8-0.8,2.7c0,0.1,0,0.1,0,0.2c0,0.1,0,0.2-0.1,0.3l0,0
	c-3.8,16.2,6,32.5,22.2,36.6c16.2,4.1,32.6-5.6,36.9-21.6l0,0c0-0.1,0-0.2,0.1-0.3c0-0.1,0-0.1,0.1-0.2c0.3-1.4,0.6-2.8,0.7-4.1
	c0,0,0-0.1,0-0.1c0-0.2,0-0.5,0.1-0.7c1.3-13.9-7-21.6-9.7-28.7c-3-8-2.7-10-0.3-19.7c0.7-2.8,1.4-6,2.6-9.5
	c10.9,3.1,22.5,4.7,34.4,4.7c2.8,0,5.6-0.1,8.4-0.3c-0.1,0.1-0.1,0.1-0.2,0.2c-6.2,6.5-17.4,13.4-17.6,30.5c0,0.1,0,0.3,0,0.4
	c0,0.1,0,0.1,0,0.2c0,1,0,2,0.1,3c0,0.1,0,0.2,0,0.2c0,0.1,0,0.2,0,0.3l0,0c1.8,17.6,17.4,30.5,35,28.9c17.6-1.5,30.7-17,29.5-34.6
	l0,0c0-0.1,0-0.2,0-0.3c0-0.1,0-0.2,0-0.2c-0.1-1.5-0.4-3-0.7-4.4c0,0,0-0.1,0-0.1c-0.1-0.2-0.1-0.5-0.2-0.7
	c-3.5-14.4-14.6-19.3-19.8-25.4c-0.6-0.7-1.1-1.3-1.6-2c6.8-1.8,13.3-4.2,19.5-7c5.1,5.3,11.9,8.7,19.3,9.6
	c3.4,4.3,5.7,8.1,7.3,11.7c3.7,8.4,5.6,10.6,2.1,18.2c-3.3,7-10.6,15.8-6,29.9c0,0.1,0.1,0.2,0.1,0.3c0,0.1,0,0.1,0.1,0.2
	c0.3,0.8,0.6,1.6,0.9,2.4c0,0.1,0.1,0.1,0.1,0.2c0,0.1,0.1,0.2,0.1,0.2l0,0c6.4,13.9,22.7,20.2,36.8,14.1
	c14.1-6.1,20.6-22.4,14.7-36.5l0,0c0-0.1-0.1-0.2-0.1-0.2c0-0.1-0.1-0.1-0.1-0.2c-0.5-1.2-1.1-2.3-1.8-3.4c0,0,0-0.1-0.1-0.1
	c-0.1-0.2-0.2-0.4-0.4-0.6c-6.9-10.9-17.3-11.8-23.3-15.4c-6.7-4.1-7.6-5.7-11.3-14.1c-1.1-2.5-2.4-5.3-3.5-8.6
	c14.2-5.6,22.3-20.4,19.8-35.1c0.4,0.3,0.8,0.6,1.2,0.9c7.4,5.7,10.1,6.7,10.7,15.1c0.5,7.8-1.7,19.2,9.2,29.4
	c0.1,0.1,0.2,0.2,0.3,0.2c0,0,0.1,0.1,0.1,0.1c0.6,0.6,1.3,1.1,2,1.7c0.1,0,0.1,0.1,0.2,0.1c0.1,0.1,0.1,0.1,0.2,0.2l0,0
	c12.4,9.3,29.9,6.9,39.4-5.3s7.4-29.8-4.7-39.5l0,0c-0.1-0.1-0.1-0.1-0.2-0.2c-0.1,0-0.1-0.1-0.2-0.1c-1-0.8-2.1-1.5-3.2-2.2
	c0,0-0.1,0-0.1-0.1c-0.2-0.1-0.4-0.2-0.6-0.3c-11.4-6.3-21.1-2-28.1-2.4c-7.9-0.4-9.5-1.4-16.9-7.1c-3.2-2.5-7-5.2-10.8-9.4
	c6.8-10.9,11.8-22.9,14.7-35.7c4,1.1,6.4,2.7,9.3,7.9c4.2,7.3,7.4,19.3,22.7,24.1c0.1,0,0.2,0.1,0.4,0.1c0.1,0,0.1,0,0.2,0
	c0.9,0.3,1.8,0.5,2.7,0.7c0.1,0,0.1,0,0.2,0c0.1,0,0.2,0,0.3,0.1l0,0c16.3,3.1,32.2-7.4,35.6-23.8s-7-32.3-23.2-35.9l0,0
	c-0.1,0-0.2,0-0.3-0.1c-0.1,0-0.1,0-0.2-0.1c-1.4-0.3-2.8-0.5-4.1-0.6c0,0-0.1,0-0.1,0c-0.2,0-0.5,0-0.7,0c-14-0.7-21.3,8-28.3,11
	c-5.3,2.3-7.9,2.9-12.1,2.5c0.4-3.8,0.6-7.7,0.6-11.6c0-3.4-0.2-6.8-0.4-10.1c14.1-10.2,23.1-14.2,31.1-15.9
	c9.4-1.9,12.1-3.4,19,1.8c6.5,4.9,13.9,14.3,29.2,12.7c0.1,0,0.2,0,0.4,0c0.1,0,0.1,0,0.2,0c0.9-0.1,1.8-0.2,2.7-0.4
	c0.1,0,0.1,0,0.2,0c0.1,0,0.2,0,0.3,0l0,0C460,222.9,470,207.5,466.8,191.8z"/>
<g>
	<path class="st1" d="M313,204.2c-0.2-0.1-0.4-0.2-0.6-0.3c0.4-3,0.6-6.1,0.6-9.2c0-29.5-17.9-54.8-43.4-65.7
		c13.3,9,22,24.2,22,41.4c0,8-1.9,15.5-5.2,22.2c-11.4-11.7-27.2-18.9-44.8-18.9c-17.5,0-33.4,7.2-44.7,18.9
		c-3.3-6.7-5.2-14.2-5.2-22.2c0-17.2,8.7-32.4,22-41.4c-25.5,10.9-43.4,36.2-43.4,65.7c0,3.1,0.2,6.2,0.6,9.2
		c-0.2,0.1-0.4,0.2-0.6,0.3c-24.7,14.3-37.6,41.1-35.4,67.8c1.5-15.5,10.2-30.1,24.7-38.5c6.4-3.7,13.3-5.8,20.2-6.5
		c-0.4,3-0.7,6.1-0.7,9.2c0,30.5,21.9,55.9,50.8,61.4c-4.2,9.1-11.1,17-20.4,22.4c-16.4,9.4-35.8,8.6-50.9-0.6
		c22.3,19.8,55.7,24.2,83,8.4c24.5,14.2,54,12.1,75.9-2.9c-13.5,5-29,4.2-42.4-3.6c-9.8-5.7-17-14.2-21.1-23.9
		c28.6-5.8,50.1-31,50.1-61.3c0-2.7-0.2-5.3-0.5-7.9c7.3,0.5,14.7,2.6,21.5,6.6c12.3,7.1,20.4,18.7,23.5,31.5
		C348.8,241.6,336,217.5,313,204.2z M250.5,283.3c-1.1-10.1,0.9-20.7,6.4-30.2c0.1-0.3,0.3-0.5,0.5-0.8c-2.1-1.1-4.2-2.3-6.3-3.5
		c-2.2,1.7-5,2.8-8,2.8c-2.7,0-5.3-0.9-7.4-2.3c-2.3,1.5-4.5,2.9-6.7,4.4c4.9,9.5,6.5,19.9,5.1,29.8c-22.9-3.6-40.4-23.5-40.4-47.4
		c0-2.9,0.3-5.7,0.8-8.4c11.1,2.2,21.4,8.2,28.9,17.4c2.3-1.6,4.7-3.1,7.1-4.6c-0.1-0.5-0.1-1.1-0.1-1.6c0-5.2,3-9.6,7.4-11.6
		c0-2.4,0-4.7,0-7.1c-12.7-1-24-6.7-32.3-15.4c8.8-10.1,21.8-16.6,36.2-16.6c14.5,0,27.5,6.4,36.3,16.6
		c-7.7,8.1-18.1,13.7-29.8,15.2c0,2.4,0,4.8,0,7.1c4.6,2,7.8,6.5,7.8,11.8c0,0.3,0,0.5,0,0.8c2.6,1.5,5.2,2.9,7.8,4.3
		c6.9-7.4,15.9-12.4,25.5-14.6c0.3,2.2,0.5,4.5,0.5,6.7C289.7,259.7,272.8,279.2,250.5,283.3z"/>
	<g class="st2">
		<path class="st3" d="M269.6,129c25.5,10.9,43.4,36.2,43.4,65.7c0,3.1-0.2,6.2-0.6,9.2c0.2,0.1,0.4,0.2,0.6,0.3
			c23,13.3,35.8,37.4,35.7,62.1c-3.1-12.8-11.2-24.4-23.5-31.5c-6.8-3.9-14.1-6.1-21.5-6.6c0.3,2.6,0.5,5.2,0.5,7.9
			c0,30.3-21.5,55.5-50.1,61.3c4.1,9.7,11.2,18.3,21.1,23.9c7.9,4.5,16.4,6.7,24.9,6.7c6,0,11.9-1.1,17.5-3.1
			c-11.9,8.1-26,12.4-40.3,12.4c-12.1,0-24.4-3.1-35.6-9.6c-11.2,6.5-23.5,9.6-35.6,9.6c-17.3,0-34.3-6.3-47.4-18
			c7.8,4.7,16.8,7.3,26,7.3c8.5,0,17.1-2.2,24.9-6.7c9.3-5.4,16.2-13.3,20.4-22.4c-28.9-5.5-50.8-30.9-50.8-61.4
			c0-3.1,0.2-6.2,0.7-9.2c-6.9,0.7-13.8,2.8-20.2,6.5c-14.5,8.4-23.2,23-24.7,38.5c-2.2-26.7,10.7-53.5,35.4-67.8
			c0.2-0.1,0.4-0.2,0.6-0.3c-0.4-3-0.6-6.1-0.6-9.2c0-29.5,17.9-54.8,43.4-65.7c-13.3,9-22,24.2-22,41.4c0,8,1.9,15.5,5.2,22.2
			c11.4-11.6,27.2-18.9,44.7-18.9c17.6,0,33.4,7.2,44.8,18.9c3.3-6.7,5.2-14.2,5.2-22.2C291.6,153.2,282.9,138,269.6,129
			 M223.3,245.1c-7.5-9.2-17.8-15.1-28.9-17.4c-0.5,2.7-0.8,5.5-0.8,8.4c0,23.9,17.5,43.8,40.4,47.4c1.4-9.9-0.2-20.3-5.1-29.8
			c2.2-1.5,4.5-3,6.7-4.4c2.1,1.5,4.6,2.3,7.4,2.3c3,0,5.8-1,8-2.8c2.1,1.2,4.2,2.3,6.3,3.5c-0.2,0.3-0.3,0.5-0.5,0.8
			c-5.5,9.5-7.5,20.1-6.4,30.2c22.3-4.1,39.2-23.7,39.2-47.2c0-2.3-0.2-4.5-0.5-6.7c-9.6,2.2-18.5,7.1-25.5,14.6
			c-2.6-1.4-5.3-2.8-7.8-4.3c0-0.3,0-0.5,0-0.8c0-5.3-3.2-9.9-7.8-11.8c0-2.4,0-4.8,0-7.1c11.7-1.5,22.1-7,29.8-15.2
			c-8.8-10.1-21.8-16.6-36.3-16.6c-14.5,0-27.4,6.4-36.2,16.6c8.2,8.7,19.6,14.4,32.3,15.4c0,2.4,0,4.7,0,7.1
			c-4.4,2-7.4,6.5-7.4,11.6c0,0.5,0,1.1,0.1,1.6C228,242,225.6,243.5,223.3,245.1 M269.6,125c-1.4,0-2.8,0.8-3.5,2.1
			c-1,1.8-0.4,4.1,1.3,5.2c12.7,8.6,20.3,22.8,20.3,38.1c0,5.3-0.9,10.4-2.6,15.3c-12.1-10.4-27.2-16.1-43.3-16.1
			c-16.1,0-31.3,5.7-43.3,16c-1.7-4.9-2.6-10-2.6-15.3c0-15.3,7.6-29.5,20.3-38.1c1.7-1.2,2.3-3.4,1.3-5.2c-0.7-1.3-2.1-2.1-3.5-2.1
			c-0.5,0-1.1,0.1-1.6,0.3c-27.9,11.9-45.9,39.1-45.9,69.3c0,2.3,0.1,4.7,0.3,7.1c-11.9,7.2-21.4,17.5-27.7,29.9
			c-6.4,12.6-9.2,26.6-8,40.7c0.2,2.1,1.9,3.7,4,3.7c0,0,0,0,0,0c2.1,0,3.8-1.6,4-3.6c1.4-14.8,9.9-28,22.8-35.4
			c4.3-2.5,8.9-4.2,13.7-5.2c-0.1,1.5-0.2,3-0.2,4.5c0,30.1,20.3,56.3,48.9,64.1c-4,6.7-9.6,12.2-16.5,16.2c-7,4-14.9,6.2-22.9,6.2
			c-8.4,0-16.7-2.3-23.9-6.7c-0.6-0.4-1.4-0.6-2.1-0.6c-1.2,0-2.4,0.6-3.2,1.6c-1.2,1.7-1,4,0.6,5.4c13.8,12.2,31.6,19,50.1,19
			c12.4,0,24.6-3.1,35.6-9c11,5.9,23.2,9,35.6,9c15.3,0,30-4.5,42.6-13.1c1.7-1.1,2.2-3.3,1.3-5.1c-0.7-1.4-2.1-2.2-3.6-2.2
			c-0.5,0-0.9,0.1-1.4,0.3c-5.2,1.9-10.6,2.9-16.1,2.9c-8,0-15.9-2.1-22.9-6.2c-7.4-4.3-13.3-10.4-17.3-17.8
			c28.3-8,48.3-34.2,48.3-64c0-1.1,0-2.2-0.1-3.3c5.3,0.9,10.3,2.7,15,5.5c11,6.3,18.7,16.6,21.7,29c0.4,1.8,2.1,3.1,3.9,3.1
			c0.2,0,0.3,0,0.5,0c2-0.2,3.5-1.9,3.5-4c0.1-26.4-13.6-50.9-36-64.6c0.2-2.4,0.3-4.8,0.3-7.1c0-30.3-18-57.5-45.9-69.3
			C270.6,125.1,270.1,125,269.6,125L269.6,125z M211,204.6c8.2-7.9,19.2-12.4,30.6-12.4c11.5,0,22.5,4.5,30.6,12.4
			c-6.9,6.2-15.5,10.2-24.7,11.3c-2,0.3-3.5,2-3.5,4c0,1.8,0,3.6,0,5.4l0,1.6c0,1.6,1,3.1,2.4,3.7c3.3,1.4,5.4,4.6,5.4,8.1
			c0,0.1,0,0.2,0,0.3l0,0.2c-0.1,1.5,0.7,2.9,2,3.7c2.3,1.3,4.6,2.6,6.8,3.8l1.1,0.6c0.6,0.3,1.2,0.5,1.9,0.5c1.1,0,2.1-0.4,2.9-1.3
			c5.2-5.6,11.7-9.7,19-12.2c0,0.5,0,1.1,0,1.6c0,19.6-13,36.7-31.4,42.2c-0.1-8.1,2-16.1,6.2-23.2c0.1-0.1,0.1-0.2,0.2-0.3
			c0.1-0.1,0.2-0.2,0.2-0.4c0.6-0.9,0.7-2.1,0.4-3.1c-0.3-1.1-1-1.9-2-2.5c-2.2-1.2-4.2-2.3-6.2-3.4c-0.6-0.4-1.3-0.5-2-0.5
			c-0.9,0-1.8,0.3-2.5,0.9c-1.6,1.3-3.5,1.9-5.5,1.9c-1.8,0-3.6-0.6-5.1-1.6c-0.7-0.5-1.5-0.7-2.3-0.7c-0.8,0-1.5,0.2-2.2,0.6
			l-1.1,0.7c-1.9,1.2-3.8,2.5-5.7,3.7c-1.7,1.1-2.3,3.4-1.3,5.2c3.7,7.2,5.4,15.1,5.1,23.1c-19.3-5-32.8-22.3-32.8-42.6
			c0-1.1,0-2.3,0.1-3.5c8.8,2.6,16.6,7.8,22.4,14.9c0.8,1,1.9,1.5,3.1,1.5c0.8,0,1.6-0.2,2.2-0.7c1.9-1.3,3.8-2.5,5.7-3.8l1.3-0.8
			c1.3-0.8,2-2.3,1.8-3.8c-0.1-0.4-0.1-0.8-0.1-1.1c0-3.4,2-6.6,5.1-8c1.4-0.7,2.3-2.1,2.3-3.6c0-0.7,0-1.3,0-2c0-1.7,0-3.4,0-5.2
			c0-2.1-1.6-3.8-3.7-3.9C228,215.4,218.5,211.3,211,204.6L211,204.6z"/>
	</g>
</g>
<g>
</g>
<g>
</g>
<g>
</g>
<g>
</g>
<g>
</g>
<g>
</g>
<g>
</g>
<g>
</g>
<g>
</g>
<g>
</g>
<g>
</g>
<g>
</g>
<g>
</g>
<g>
</g>
<g>
</g>
</svg>
